<?xml version="1.0" encoding="utf-8"?>
<!-- Generator: Adobe Illustrator 17.1.0, SVG Export Plug-In . SVG Version: 6.00 Build 0)  -->
<!DOCTYPE svg PUBLIC "-//W3C//DTD SVG 1.1//EN" "http://www.w3.org/Graphics/SVG/1.1/DTD/svg11.dtd">
<svg version="1.1" id="Capa_1" xmlns="http://www.w3.org/2000/svg" xmlns:xlink="http://www.w3.org/1999/xlink" x="0px" y="0px"
	 viewBox="0 0 792 792" enable-background="new 0 0 792 792" xml:space="preserve">
<g>
	<path fill="#3D3D3D" d="M396,0C177.3,0,0,177.3,0,396s177.3,396,396,396s396-177.3,396-396S614.7,0,396,0z M396,730.1
		C211.5,730.1,61.9,580.5,61.9,396S211.5,61.9,396,61.9S730.1,211.5,730.1,396S580.5,730.1,396,730.1z"/>
	<g>
		<path fill="#3D3D3D" d="M283.4,408.1L307.1,198h192v44.9H342.3l-10.5,108.4l1.9,0.8c9-8.7,19.6-15,32-18.6
			c12.2-3.7,24.3-5.6,36.4-5.6c17,0,32.6,3.4,47.2,10.4c14.4,6.8,26.9,16.2,37.3,28.3s18.7,26.1,24.6,42.5
			c5.9,16.2,8.8,33.7,8.8,52.1c0,17-2.6,33.4-7.7,49.5c-5.4,15.9-13.5,29.9-23.8,42.5c-10.4,12.4-23.7,22.1-39.8,29.5
			c-16.1,7.4-35,11.1-56.5,11.1c-30.2,0-56.3-9.6-78.1-28.3c-22-18.9-35.9-46.7-41.6-83.1h50.3c4.5,20.9,13.1,37.1,25.7,48.7
			c12.7,11.6,27.4,17.8,44.4,17.8c11.6,0,22.1-2.3,31.6-7c9.6-4.6,17.8-10.8,24.6-18.6c6.7-8,12.1-17.3,15.8-28.5
			c3.9-11,5.6-22.7,5.6-35.3c0-12.8-2.2-24.6-6.7-35.3c-4.8-10.5-10.7-19.6-18.4-27.2c-7.6-7.6-16.4-13.6-26.3-17.9
			c-9.9-4.3-20.1-6.5-30.5-6.5c-11.6,0-22.7,2.8-33.6,8.4c-10.7,5.6-19.8,14.5-27.2,27.1h-44.2V408.1z"/>
	</g>
</g>
</svg>
