<?xml version="1.0" encoding="utf-8"?>
<!-- Generator: Adobe Illustrator 17.1.0, SVG Export Plug-In . SVG Version: 6.00 Build 0)  -->
<!DOCTYPE svg PUBLIC "-//W3C//DTD SVG 1.1//EN" "http://www.w3.org/Graphics/SVG/1.1/DTD/svg11.dtd">
<svg version="1.1" id="Capa_1" xmlns="http://www.w3.org/2000/svg" xmlns:xlink="http://www.w3.org/1999/xlink" x="0px" y="0px"
	 viewBox="0 0 128 128" enable-background="new 0 0 128 128" xml:space="preserve">
<g>
	<path fill="#3D3D3D" d="M65.4,85.6c0.5-0.3,0.7-0.8,0.7-1.4c0-0.8-0.2-1.2-0.7-1.4c-0.5-0.2-1.2-0.3-2.2-0.3h-2.5v3.6h2.9
		C64.4,86.1,65,85.9,65.4,85.6z"/>
	<path fill="#3D3D3D" d="M66,90.4c-0.6-0.2-1.6-0.4-3-0.4h-2.3v4h3.1c1,0,1.7-0.1,2.3-0.4s0.8-0.8,0.8-1.5
		C66.9,91.2,66.6,90.6,66,90.4z"/>
	<path fill="#3D3D3D" d="M76.5,60.4c-0.2-0.6-0.5-1.1-0.9-1.5c-0.4-0.4-1-0.6-1.6-0.6c-0.7,0-1.2,0.2-1.6,0.7
		c-0.4,0.4-0.7,1-0.9,1.7c-0.2,0.7-0.3,1.3-0.3,2c-0.1,0.7-0.1,1.3-0.1,2.1c0,2,0.2,3.6,0.6,4.6c0.4,1.1,1.2,1.6,2.3,1.6
		c1,0,1.8-0.6,2.2-1.7s0.7-2.6,0.7-4.6c0-0.9,0-1.7-0.1-2.4C76.8,61.6,76.7,61,76.5,60.4z"/>
	<path fill="#3D3D3D" d="M127.7,107.2l-20.1-62.1c-0.9-2.7-3.4-4.6-6.3-4.6H80.1c1.7-2.8,2.7-6.1,2.7-9.7c0-10.4-8.4-18.8-18.8-18.8
		c-10.4,0-18.8,8.4-18.8,18.8c0,3.6,1,6.9,2.7,9.7H26.7c-2.9,0-5.4,1.9-6.3,4.6L0.3,107.2c-1.4,4.3,1.8,8.7,6.3,8.7h114.7
		C125.9,115.9,129.1,111.5,127.7,107.2z M64,20.9c5.5,0,9.9,4.5,9.9,9.9c0,4.7-3.3,8.7-7.8,9.7h-4.3c-4.5-1-7.8-5-7.8-9.7
		C54.1,25.4,58.5,20.9,64,20.9z M45.6,54h17v4.7c-1,0.8-1.9,1.7-2.7,2.9c-0.8,1.1-1.5,2.4-2.2,3.8c-0.6,1.4-1.1,3-1.5,4.6
		c-0.4,1.7-0.6,3.4-0.6,5.1h-6.5c0.3-3.3,1.1-6.3,2.4-9c1.3-2.6,2.9-5,4.9-7.1H45.6V54z M50.6,99.1H33.7V77.4h7.1V94h9.7V99.1z
		 M72.9,95.6c-0.4,0.8-1.1,1.5-1.9,2c-0.8,0.5-1.8,0.9-2.9,1.1c-1.1,0.2-2.4,0.3-3.9,0.3H53.6V77.4H64c1.3,0,2.5,0.1,3.5,0.3
		c1,0.2,2,0.5,2.7,0.9c0.8,0.4,1.4,1,1.8,1.7c0.4,0.7,0.7,1.6,0.7,2.6c0,1-0.3,1.9-0.8,2.8c-0.6,0.8-1.2,1.5-2,2
		c1.1,0.3,2,0.9,2.7,1.8s0.9,2,0.9,3.2C73.5,93.7,73.3,94.7,72.9,95.6z M69.8,74.8c-1.2-0.6-2.1-1.4-2.9-2.4c-0.7-1-1.2-2.2-1.6-3.6
		c-0.3-1.4-0.5-2.8-0.5-4.4c0-1.9,0.2-3.5,0.7-4.9c0.5-1.4,1.2-2.5,2-3.3c0.9-0.9,1.8-1.5,2.9-1.9s2.3-0.6,3.5-0.6
		c2.8,0,5.1,0.9,6.7,2.7c1.6,1.8,2.5,4.5,2.5,7.9c0,1.6-0.2,3-0.5,4.4c-0.3,1.3-0.9,2.5-1.6,3.6c-0.7,1-1.7,1.8-2.8,2.4
		s-2.6,0.9-4.3,0.9C72.4,75.6,71,75.3,69.8,74.8z M92.8,97.7c-1.8,1.3-4.3,1.9-7.4,1.9c-1.4,0-2.7-0.2-3.8-0.6s-2.2-0.9-3-1.6
		c-0.8-0.7-1.5-1.4-2-2.3c-0.5-0.9-0.7-1.8-0.8-2.8h6.8c0.1,0.8,0.5,1.3,1.2,1.7c0.6,0.4,1.3,0.5,2,0.5c0.9,0,1.6-0.1,2.1-0.4
		c0.5-0.3,0.8-0.7,0.8-1.2c0-0.6-0.3-1-1-1.3s-1.7-0.6-3.2-1c-1.3-0.3-2.3-0.6-3.2-0.9c-0.8-0.3-1.7-0.7-2.5-1.2
		c-0.8-0.5-1.4-1.2-1.9-2c-0.5-0.8-0.7-1.8-0.7-3c0-2.2,0.9-3.9,2.6-5.1c1.7-1.2,4-1.8,6.8-1.8c1.5,0,2.8,0.2,3.9,0.5
		c1.1,0.4,2,0.8,2.8,1.5c0.8,0.6,1.3,1.3,1.8,2.2c0.4,0.8,0.7,1.7,0.8,2.7h-6.7c-0.1-0.7-0.4-1.2-1-1.5c-0.5-0.3-1.1-0.4-1.8-0.4
		c-1.5,0-2.3,0.4-2.3,1.2c0,0.6,0.3,1,1,1.3c0.7,0.3,1.7,0.6,3.2,1c1.3,0.3,2.3,0.6,3.1,0.9c0.8,0.3,1.6,0.7,2.4,1.1
		c0.8,0.5,1.4,1.1,1.9,1.9c0.5,0.8,0.7,1.7,0.7,2.9C95.6,94.6,94.7,96.5,92.8,97.7z"/>
</g>
</svg>
