<?xml version="1.0" encoding="utf-8"?>
<!-- Generator: Adobe Illustrator 17.1.0, SVG Export Plug-In . SVG Version: 6.00 Build 0)  -->
<!DOCTYPE svg PUBLIC "-//W3C//DTD SVG 1.1//EN" "http://www.w3.org/Graphics/SVG/1.1/DTD/svg11.dtd">
<svg version="1.1" id="Capa_1" xmlns="http://www.w3.org/2000/svg" xmlns:xlink="http://www.w3.org/1999/xlink" x="0px" y="0px"
	 viewBox="0 0 792 792" enable-background="new 0 0 792 792" xml:space="preserve">
<g>
	<path fill="#3D3D3D" d="M391.1,0C173.3,5-5,183.2,0,401s183.2,396,401,391s396-183.1,391-401S608.9-5,391.1,0z M391.1,638.5
		L391.1,638.5c-34.6,0-59.4-24.8-59.4-59.4c0-34.6,24.8-54.5,59.4-54.5l0,0c34.6,0,59.4,24.8,59.4,59.4
		C445.5,613.8,420.8,638.5,391.1,638.5z M529.6,356.4c-9.9,9.9-24.7,24.8-49.5,44.5l-19.8,14.9c-14.9,9.9-19.8,19.8-24.8,29.7
		c0,9.9-5,9.9-5,24.8v5h-89.1v-9.9c0-29.7,0-49.5,14.9-64.4c19.8-24.8,64.3-54.5,69.3-59.4c5-5,9.9-9.9,14.9-14.9
		c9.9-14.9,14.9-24.8,14.9-34.6c0-14.9-5-29.7-14.9-39.6c-5-9.9-24.8-14.8-44.6-14.8c-19.8,0-34.6,4.9-44.6,19.8
		c-9.9,14.8-14.8,29.7-14.8,44.5v5h-94.1v-5c0-59.4,24.8-99,59.4-123.7c24.8-14.9,54.5-24.8,89.1-24.8c44.5,0,84.1,9.9,113.9,34.6
		s44.5,54.5,44.5,99C554.4,311.9,544.5,336.6,529.6,356.4z"/>
</g>
</svg>
