<?xml version="1.0" encoding="utf-8"?>
<!-- Generator: Adobe Illustrator 17.1.0, SVG Export Plug-In . SVG Version: 6.00 Build 0)  -->
<!DOCTYPE svg PUBLIC "-//W3C//DTD SVG 1.1//EN" "http://www.w3.org/Graphics/SVG/1.1/DTD/svg11.dtd">
<svg version="1.1" id="Capa_1" xmlns="http://www.w3.org/2000/svg" xmlns:xlink="http://www.w3.org/1999/xlink" x="0px" y="0px"
	 viewBox="0 0 792 792" enable-background="new 0 0 792 792" xml:space="preserve">
<path fill="#3D3D3D" d="M777.1,762.3c0,14.8-14.8,29.7-29.7,29.7H509.8H301.9H49.5c-14.9,0-29.7-14.9-29.7-29.7
	c0-14.9,14.8-29.7,29.7-29.7h227.7v-89.1h-64.3c-64.3,0-118.8-54.5-118.8-118.8V376.2c0-39.6,34.7-74.3,74.3-74.3l0,0
	c39.6,0,74.3,34.6,74.3,74.3v113.9c0,5,0,5,4.9,5h24.8V133.7C272.3,59.4,331.6,0,405.9,0s133.6,59.4,133.6,133.7v153.4h29.7
	c5,0,9.9-4.9,9.9-9.9v-89.1c0-34.6,29.7-69.3,64.4-69.3c39.6-4.9,74.3,29.7,74.3,69.3v128.7c0,59.4-49.5,103.9-104,103.9h-69.3
	v306.9h198C762.3,732.6,777.1,742.5,777.1,762.3z"/>
</svg>
