<?xml version="1.0" encoding="utf-8"?>
<!-- Generator: Adobe Illustrator 17.1.0, SVG Export Plug-In . SVG Version: 6.00 Build 0)  -->
<!DOCTYPE svg PUBLIC "-//W3C//DTD SVG 1.1//EN" "http://www.w3.org/Graphics/SVG/1.1/DTD/svg11.dtd">
<svg version="1.1" id="Capa_1" xmlns="http://www.w3.org/2000/svg" xmlns:xlink="http://www.w3.org/1999/xlink" x="0px" y="0px"
	 viewBox="0 0 792 792" enable-background="new 0 0 792 792" xml:space="preserve">
<g>
	<path fill="#3D3D3D" d="M396,0C177.3,0,0,177.3,0,396s177.3,396,396,396s396-177.3,396-396S614.7,0,396,0z M396,730.1
		C211.5,730.1,61.9,580.5,61.9,396S211.5,61.9,396,61.9S730.1,211.5,730.1,396S580.5,730.1,396,730.1z"/>
	<g>
		<path fill="#3D3D3D" d="M468.5,299.6c0-6.8-1.5-13.6-5.1-20.4c-3.4-6.8-7.9-13-13.5-18.4c-5.4-5.4-12.2-9.9-20.1-13.3
			c-7.9-3.4-16.2-5.1-25.2-5.1c-15.9,0-28.6,3.9-38.5,11.6c-9.7,7.7-17.6,17.8-23.4,30.3c-5.7,12.5-9.7,26.5-12.2,41.9
			c-2.3,15.5-3.7,30.6-4.2,45.6h2c22.1-22.7,46.1-34,72.1-34c16.6,0,32.2,3.1,46.9,9.6c14.5,6.3,27.2,15.3,37.9,26.6
			c10.8,11.3,19.2,24.9,25.4,40.8c6.2,15.9,9.1,33.1,9.1,51.7c0,17.3-2.8,33.9-8.4,49.3c-5.4,15.5-13.5,28.8-23.7,40.4
			c-10.2,11.6-22.6,20.9-37.3,27.7c-14.5,6.7-31.1,10.1-49.3,10.1c-19.6,0-37.3-4-53.4-12.2c-15.9-8.2-29.4-19.8-40.5-35
			c-11.1-15.3-19.6-33.9-25.8-55.7c-6.2-21.7-9.3-46.6-9.3-74.3c0-39.6,3.1-73.3,9.3-101.3c6.2-27.8,15-50.4,26.6-67.8
			c11.6-17.2,25.4-29.9,41.6-37.7c16.2-7.9,34.3-11.9,54.4-11.9c15.8,0,30.5,2.8,43.9,8.5c13.5,5.7,25.1,13.3,34.5,22.9
			c9.4,9.6,17.3,20.4,23.2,32.6c5.6,12.4,8.8,24.9,9.9,37.6L468.5,299.6L468.5,299.6z M400.8,549.9c22.9,0,40.1-8,51-23.5
			c11.1-15.8,16.7-35.1,16.7-58.3c0-11.3-1.4-22.1-4-32.3c-2.8-10.2-7.1-19.3-13-27.2c-5.6-7.9-12.7-14.4-21-19.2
			c-8.4-4.8-17.9-7.1-29.1-7.1c-13.6,0-25.2,2.8-34.5,8.2c-9.4,5.4-17,12.4-22.9,20.9c-5.7,8.4-9.7,17.6-12.1,27.5
			c-2.3,10.1-3.6,19.8-3.6,29.4c0,24.8,6.5,44.4,19.8,59.4C361.5,542.2,379,549.9,400.8,549.9z"/>
	</g>
</g>
</svg>
