<?xml version="1.0" encoding="iso-8859-1"?>
<!-- Generator: Adobe Illustrator 16.0.0, SVG Export Plug-In . SVG Version: 6.00 Build 0)  -->
<!DOCTYPE svg PUBLIC "-//W3C//DTD SVG 1.1//EN" "http://www.w3.org/Graphics/SVG/1.1/DTD/svg11.dtd">
<svg xmlns="http://www.w3.org/2000/svg" xmlns:xlink="http://www.w3.org/1999/xlink" version="1.1" id="Capa_1" x="0px" y="0px" width="128px" height="128px" viewBox="0 0 57.778 57.777" style="enable-background:new 0 0 57.778 57.777;" xml:space="preserve">
<g>
	<g>
		<path d="M15.608,23.706c0-2.022-1.654-3.677-3.678-3.677H7.516c-2.023,0-3.677,1.655-3.677,3.677v8.459    c0,1.501,0.911,2.799,2.207,3.366v10.61c0,1.619,1.324,2.943,2.942,2.943h1.471c1.618,0,2.942-1.324,2.942-2.943V35.533    c1.296-0.571,2.208-1.867,2.208-3.366V23.706z" fill="#3d3d3d"/>
		<circle cx="9.724" cy="15.615" r="3.31" fill="#3d3d3d"/>
		<path d="M2.447,32.231v-8.46c0-0.126,0.024-0.247,0.032-0.371H0v18.027h4.654V36.41C3.289,35.475,2.447,33.918,2.447,32.231z" fill="#3d3d3d"/>
		<path d="M28.153,12.306c0,1.994,1.617,3.61,3.613,3.61c1.995,0,3.611-1.617,3.611-3.61c0-1.997-1.616-3.614-3.611-3.614    C29.77,8.692,28.153,10.31,28.153,12.306z" fill="#3d3d3d"/>
		<path d="M38.186,21.134c0-2.206-1.805-4.012-4.013-4.012h-4.814c-0.48,0-0.934,0.099-1.36,0.256v4.642h-2.655v1.321h12.84v-2.207    H38.186z" fill="#3d3d3d"/>
		<polygon points="23.487,23.341 23.487,21.286 27.173,21.286 27.173,13.864 16.826,13.864 16.826,21.286 20.516,21.286     20.516,23.341   " fill="#3d3d3d"/>
		<path d="M44.7,16.59c0.031-0.081-0.008-0.171-0.087-0.204c-0.08-0.033-0.171,0.005-0.204,0.086l-0.325,0.795    c-0.006,0.019-0.012,0.04-0.012,0.06v1.802c-0.283-0.001-1.245,0.01-1.364,0.188c0,0-0.079,0.227-0.07,0.496    c0,0,0.601,0.077,1.514,0.077h0.165c0.913,0,1.513-0.077,1.513-0.077c0.009-0.269-0.069-0.496-0.069-0.496    c-0.119-0.18-1.105-0.188-1.374-0.188v-1.772L44.7,16.59z M44.59,16.422c0.063,0.019,0.1,0.077,0.083,0.127    c-0.015,0.052-0.077,0.078-0.14,0.061c-0.063-0.019-0.1-0.077-0.083-0.13C44.464,16.431,44.531,16.403,44.59,16.422z" fill="#3d3d3d"/>
		<path d="M48.865,16.504c0.035-0.08-0.006-0.171-0.084-0.202c-0.082-0.034-0.171,0.005-0.205,0.084l-0.325,0.795    c-0.008,0.019-0.01,0.04-0.01,0.061v1.803c-0.285-0.002-1.247,0.01-1.367,0.186c0,0-0.079,0.228-0.067,0.497    c0,0,0.597,0.077,1.512,0.077h0.166c0.912,0,1.511-0.077,1.511-0.077c0.011-0.269-0.067-0.497-0.067-0.497    c-0.12-0.179-1.106-0.188-1.376-0.186v-1.774L48.865,16.504z M48.759,16.338c0.062,0.018,0.1,0.077,0.082,0.125    c-0.016,0.052-0.078,0.08-0.141,0.062c-0.063-0.021-0.101-0.078-0.084-0.129C48.633,16.345,48.697,16.318,48.759,16.338z" fill="#3d3d3d"/>
		<ellipse cx="53.011" cy="20.6" rx="0.92" ry="1.3" fill="#3d3d3d"/>
		<path d="M56.452,18.088l-0.232-0.027l-0.622,5.339h-0.212l0.497-5.379l-0.16-0.019l-0.528,5.399h-0.211l0.368-5.442l-0.283-0.033    l-0.278,5.475h-0.275l0.204-5.516l-0.234-0.028l-0.38,0.039l-0.045,2.479c0.01,0.074,0.016,0.148,0.016,0.225    c0,0.105-0.01,0.205-0.023,0.303l-0.045,2.498h-0.323l-0.019-1.628c-0.109,0.113-0.238,0.196-0.379,0.247l0.039,1.381h-0.32    l-0.056-1.337c-0.126-0.011-0.247-0.048-0.358-0.11l0.065,1.448h-0.322l-0.156-1.873c-0.152-0.253-0.244-0.576-0.244-0.928    c0-0.231,0.041-0.45,0.111-0.645l-0.154-1.829l-0.441,0.045l0.498,5.23h-2.607c0.007-0.003,0.024-0.014,0.024-0.014l0.459-3.529    c-0.731,0.042-1.338,0.042-1.338,0.042h-0.166c0,0-0.608,0-1.34-0.042l0.46,3.529c0,0,0.018,0.01,0.024,0.014h-2.259l0.453-3.457    c-0.731,0.045-1.341,0.045-1.341,0.045h-0.165c0,0-0.609,0-1.34-0.045l0.45,3.457H16.971c0.008,0.124,0.032,0.245,0.032,0.371    v8.46c0,1.685-0.842,3.242-2.207,4.179v5.018h42.982V23.401h-1.871L56.452,18.088z M39.851,37.424H20.516v-5.011h19.335V37.424z     M39.851,30.984H20.516V26.46h19.335V30.984z" fill="#3d3d3d"/>
		<path d="M54.349,16.951c-0.072,0-0.136,0.035-0.177,0.089c-0.053-0.139-0.185-0.237-0.343-0.237c-0.148,0-0.275,0.091-0.332,0.219    c-0.006,0-0.01-0.002-0.015-0.002c-0.093,0-0.174,0.048-0.222,0.12c-0.003,0-0.005-0.002-0.008-0.002    c-0.126,0-0.23,0.092-0.25,0.212c-0.045-0.098-0.143-0.164-0.257-0.164c-0.093,0-0.174,0.042-0.226,0.111    c-0.03-0.017-0.063-0.026-0.102-0.026c-0.098,0-0.182,0.064-0.209,0.153c-0.048-0.024-0.101-0.035-0.157-0.035    c-0.202,0-0.367,0.162-0.367,0.366c0,0.1,0.037,0.212,0.104,0.279l2.563-0.268l1.929,0.219v-0.262h-0.002    c-0.017-0.105-0.107-0.186-0.218-0.186c-0.006,0-0.017,0-0.021,0.001c-0.035-0.029-0.082-0.045-0.133-0.045    c-0.067,0-0.129,0.03-0.169,0.078c-0.022-0.148-0.148-0.263-0.307-0.263c-0.086,0-0.164,0.037-0.221,0.096    c-0.014-0.112-0.105-0.198-0.221-0.198c-0.066,0-0.125,0.03-0.166,0.077c-0.049-0.05-0.115-0.081-0.191-0.081    c-0.023,0-0.044,0.004-0.067,0.011c0.001-0.014,0.005-0.025,0.005-0.039C54.571,17.049,54.471,16.951,54.349,16.951z" fill="#3d3d3d"/>
		<path d="M53.618,17.946l-0.438,0.047l0.03,1.168c0.157,0.039,0.299,0.123,0.424,0.241L53.618,17.946z" fill="#3d3d3d"/>
		<path d="M52.784,18.033l-0.37,0.038l0.058,1.261c0.108-0.087,0.229-0.146,0.359-0.177L52.784,18.033z" fill="#3d3d3d"/>
	</g>
</g>
<g>
</g>
<g>
</g>
<g>
</g>
<g>
</g>
<g>
</g>
<g>
</g>
<g>
</g>
<g>
</g>
<g>
</g>
<g>
</g>
<g>
</g>
<g>
</g>
<g>
</g>
<g>
</g>
<g>
</g>
</svg>
