<?xml version="1.0" encoding="utf-8"?>
<!-- Generator: Adobe Illustrator 17.1.0, SVG Export Plug-In . SVG Version: 6.00 Build 0)  -->
<!DOCTYPE svg PUBLIC "-//W3C//DTD SVG 1.1//EN" "http://www.w3.org/Graphics/SVG/1.1/DTD/svg11.dtd">
<svg version="1.1" id="Capa_1" xmlns="http://www.w3.org/2000/svg" xmlns:xlink="http://www.w3.org/1999/xlink" x="0px" y="0px"
	 viewBox="0 0 792 792" enable-background="new 0 0 792 792" xml:space="preserve">
<g>
	<g>
		<path fill="#3D3D3D" d="M792,102.8H0v503.4h792V102.8z M751.5,565.4h-711V143.3h710.7v422.1H751.5z"/>
		<path fill="#3D3D3D" d="M647,669.1c0-11.3-9.1-20.4-20.4-20.4H162.9c-11.3,0-20.4,9.1-20.4,20.4c0,11.3,9.1,20.4,20.4,20.4h464
			C637.9,689.5,647,680.4,647,669.1z"/>
		<path fill="#3D3D3D" d="M138.8,264h56.9c7.4,0,13.6,5.9,13.6,13.6v203.1c0,7.4,5.9,13.6,13.6,13.6h31.7c7.4,0,13.6-5.9,13.6-13.6
			V277.6c0-7.4,5.9-13.6,13.6-13.6h56.7c7.4,0,13.6-5.9,13.6-13.6V228c0-7.4-5.9-13.6-13.6-13.6H138.8c-7.4,0-13.6,5.9-13.6,13.6
			v22.4C125.2,258.1,131.2,264,138.8,264z"/>
		<path fill="#3D3D3D" d="M509.6,481.5c2.5,7.1,10.5,12.7,17.8,12.7h28c7.4,0,15.6-5.7,17.8-12.7L660,227.2
			c2.5-7.1-1.7-12.7-9.1-12.7h-33.7c-7.4,0-15.3,5.9-17.3,13l-53.8,186.4c-2,7.1-5.4,7.1-7.4,0l-53.3-186.4c-2-7.1-9.9-13-17.3-13
			h-35.4c-7.4,0-11.6,5.7-9.3,12.7L509.6,481.5z"/>
	</g>
</g>
</svg>
