<?xml version="1.0" encoding="utf-8"?>
<!-- Generator: Adobe Illustrator 17.1.0, SVG Export Plug-In . SVG Version: 6.00 Build 0)  -->
<!DOCTYPE svg PUBLIC "-//W3C//DTD SVG 1.1//EN" "http://www.w3.org/Graphics/SVG/1.1/DTD/svg11.dtd">
<svg version="1.1" id="Capa_1" xmlns="http://www.w3.org/2000/svg" xmlns:xlink="http://www.w3.org/1999/xlink" x="0px" y="0px"
	 viewBox="0 0 352.3 352.3" enable-background="new 0 0 352.3 352.3" xml:space="preserve">
<g>
	<g>
		<path fill="#4D4D4D" d="M205,193.7c-4.5,0-8.2,1.5-10.8,4.4c-2.3,2.6-3.6,6.1-3.6,9.8c0,6.9,4.5,14.4,14.5,14.4
			c4.5,0,8.2-1.5,10.8-4.4c2.3-2.6,3.6-6.1,3.6-9.8C219.5,201.2,214.9,193.7,205,193.7z"/>
		<path fill="#4D4D4D" d="M147.9,158.9c4.5,0,8.2-1.5,10.8-4.4c2.3-2.6,3.6-6,3.6-9.8c0-6.9-4.5-14.4-14.5-14.4
			c-10.2,0-14.7,7.1-14.7,14.2C133,151.5,137.7,158.9,147.9,158.9z"/>
		<path fill="#4D4D4D" d="M176.2,62.7c-62.5,0-113.4,50.9-113.4,113.4s50.9,113.4,113.4,113.4s113.4-50.9,113.4-113.4
			S238.7,62.7,176.2,62.7z M127.1,126.3c5.1-5.5,12.2-8.4,20.7-8.4c18.2,0,27.7,13.5,27.7,26.8c0,7-2.5,13.5-7,18.4
			c-5.1,5.5-12.3,8.4-20.8,8.4c-18.1,0-27.6-13.5-27.6-26.8C120.1,137.7,122.6,131.2,127.1,126.3z M144.1,222.3
			c-1.1,1.2-3.4,2.2-5,2.2h-11.7c-1.7,0-2.1-1-1-2.2l82.5-91.8c1.1-1.2,3.4-2.3,5-2.3l11.6-0.2c1.6,0,2.1,1,1,2.2L144.1,222.3z
			 M225.4,226.2c-5,5.4-12,8.3-20.4,8.3c-17.8,0-27.1-13.2-27.1-26.3c0-6.9,2.4-13.3,6.8-18.1c5-5.4,12-8.3,20.3-8.3
			c17.9,0,27.2,13.2,27.2,26.3C232.2,215,229.8,221.4,225.4,226.2z"/>
		<path fill="#4D4D4D" d="M322.8,223.8c5.2-16.1,29.6-29.8,29.6-47.6s-24.3-31.6-29.6-47.6c-5.4-16.7,6-42.1-4.1-55.9
			c-10.2-14-37.9-10.9-52-21.1C252.9,41.4,247.3,14,230.6,8.6c-16.1-5.2-36.6,13.5-54.4,13.5c-17.8,0-38.4-18.7-54.4-13.5
			C105.1,14,99.5,41.4,85.6,51.5c-14,10.2-41.8,7.1-52,21.1c-10.1,13.9,1.3,39.3-4.1,55.9C24.3,144.6,0,158.4,0,176.2
			c0,17.8,24.3,31.6,29.6,47.6c5.4,16.7-6,42.1,4.1,55.9c10.2,14,37.9,10.9,52,21.1c13.9,10.1,19.5,37.5,36.1,42.9
			c16.1,5.2,36.6-13.5,54.4-13.5c17.8,0,38.4,18.7,54.4,13.5c16.7-5.4,22.3-32.8,36.1-42.9c14-10.2,41.8-7.1,52-21.1
			C328.8,265.9,317.4,240.5,322.8,223.8z M176.2,306.6c-71.9,0-130.4-58.5-130.4-130.4c0-71.9,58.5-130.4,130.4-130.4
			s130.4,58.5,130.4,130.4S248.1,306.6,176.2,306.6z"/>
	</g>
</g>
</svg>
