<?xml version="1.0" encoding="utf-8"?>
<!-- Generator: Adobe Illustrator 17.1.0, SVG Export Plug-In . SVG Version: 6.00 Build 0)  -->
<!DOCTYPE svg PUBLIC "-//W3C//DTD SVG 1.1//EN" "http://www.w3.org/Graphics/SVG/1.1/DTD/svg11.dtd">
<svg version="1.1" id="Capa_1" xmlns="http://www.w3.org/2000/svg" xmlns:xlink="http://www.w3.org/1999/xlink" x="0px" y="0px"
	 viewBox="0 0 792 792" enable-background="new 0 0 792 792" xml:space="preserve">
<g>
	<path fill="#3D3D3D" d="M396,0C177.3,0,0,177.3,0,396s177.3,396,396,396s396-177.3,396-396S614.7,0,396,0z M396,730.1
		C211.5,730.1,61.9,580.5,61.9,396S211.5,61.9,396,61.9S730.1,211.5,730.1,396S580.5,730.1,396,730.1z"/>
	<g>
		<path fill="#3D3D3D" d="M386.3,311.4h-95.4v-38.7h29.9c10.7,0,20.7-1.9,30.2-5.6c9.6-3.7,17.6-8.7,24.4-15.2
			c6.8-6.5,12.2-14.4,16.2-23.5c4.2-9.1,6.2-19.3,6.2-30.3h41.6v396h-53.1V311.4z"/>
	</g>
</g>
</svg>
