<?xml version="1.0" encoding="utf-8"?>
<!-- Generator: Adobe Illustrator 17.1.0, SVG Export Plug-In . SVG Version: 6.00 Build 0)  -->
<!DOCTYPE svg PUBLIC "-//W3C//DTD SVG 1.1//EN" "http://www.w3.org/Graphics/SVG/1.1/DTD/svg11.dtd">
<svg version="1.1" id="Capa_1" xmlns="http://www.w3.org/2000/svg" xmlns:xlink="http://www.w3.org/1999/xlink" x="0px" y="0px"
	 viewBox="0 0 279.6 279.6" enable-background="new 0 0 279.6 279.6" xml:space="preserve">
<g>
	<g>
		<path fill="#4D4D4D" d="M279.6,36.3H0v177.7h279.6V36.3z M265.3,199.6H14.3v-149h250.9V199.6z"/>
		<path fill="#4D4D4D" d="M228.4,236.2c0-4-3.2-7.2-7.2-7.2H57.5c-4,0-7.2,3.2-7.2,7.2c0,4,3.2,7.2,7.2,7.2h163.8
			C225.2,243.4,228.4,240.2,228.4,236.2z"/>
		<path fill="#4D4D4D" d="M49,93.2h20.1c2.6,0,4.8,2.1,4.8,4.8v71.7c0,2.6,2.1,4.8,4.8,4.8h11.2c2.6,0,4.8-2.1,4.8-4.8V98
			c0-2.6,2.1-4.8,4.8-4.8h20c2.6,0,4.8-2.1,4.8-4.8v-7.9c0-2.6-2.1-4.8-4.8-4.8H49c-2.6,0-4.8,2.1-4.8,4.8v7.9
			C44.2,91.1,46.3,93.2,49,93.2z"/>
		<path fill="#4D4D4D" d="M179.9,170c0.9,2.5,3.7,4.5,6.3,4.5h9.9c2.6,0,5.5-2,6.3-4.5L233,80.2c0.9-2.5-0.6-4.5-3.2-4.5h-11.9
			c-2.6,0-5.4,2.1-6.1,4.6l-19,65.8c-0.7,2.5-1.9,2.5-2.6,0l-18.8-65.8c-0.7-2.5-3.5-4.6-6.1-4.6h-12.5c-2.6,0-4.1,2-3.3,4.5
			L179.9,170z"/>
	</g>
</g>
</svg>
