<?xml version="1.0" encoding="utf-8"?>
<!-- Generator: Adobe Illustrator 17.1.0, SVG Export Plug-In . SVG Version: 6.00 Build 0)  -->
<!DOCTYPE svg PUBLIC "-//W3C//DTD SVG 1.1//EN" "http://www.w3.org/Graphics/SVG/1.1/DTD/svg11.dtd">
<svg version="1.1" id="Capa_1" xmlns="http://www.w3.org/2000/svg" xmlns:xlink="http://www.w3.org/1999/xlink" x="0px" y="0px"
	 viewBox="0 0 792 792" enable-background="new 0 0 792 792" xml:space="preserve">
<g>
	<path fill="#3D3D3D" d="M668.7,253.8l-70.8-0.1C551.6,187.9,476.7,148.9,396,148.9c-80.7,0-155.6,39-202,104.8h-70.8
		C55.3,253.8,0,309,0,377v38C0,483,55.3,538.2,123.3,538.2H194c46.3,65.8,121.2,104.8,202,104.8c80.7,0,155.5-39,201.8-104.6
		l70.9-0.2c68,0,123.3-55.3,123.3-123.3v-38C792,309,736.7,253.8,668.7,253.8z M319.1,350.1l-38.8,107.3c-0.7,1.9-2.6,3.2-4.6,3.2
		l-14.4-0.2c-2,0-3.8-1.3-4.5-3.3l-22.8-68l-22.9,68c-0.6,1.9-2.4,3.2-4.5,3.3l-14.4,0.2c0,0,0,0-0.1,0c-2,0-3.8-1.2-4.5-3.1
		l-39.6-107.3c-0.4-1.2-0.4-2.5,0.1-3.7c0.5-1.2,1.5-2,2.7-2.5l14.3-5.3c2.5-0.9,5.2,0.4,6.1,2.8l27.4,74.3l23.5-69.7
		c0.7-1.9,2.5-3.3,4.5-3.3c0,0,0,0,0,0l14.5,0c2.1,0,3.9,1.3,4.5,3.3l23.2,69.2l26.7-73.8c0.4-1.2,1.3-2.2,2.5-2.7
		c1.2-0.5,2.5-0.6,3.7-0.2l14.4,5.2C318.7,344.9,320,347.6,319.1,350.1z M353.9,451.6c0,2.6-2.1,4.8-4.8,4.8h-15.3
		c-2.6,0-4.8-2.1-4.8-4.8v-69.1c0-2.6,2.1-4.8,4.8-4.8h15.3c2.6,0,4.8,2.1,4.8,4.8V451.6z M341.5,365.1c-7.9,0-14.3-6.4-14.3-14.3
		c0-7.9,6.4-14.3,14.3-14.3c7.9,0,14.3,6.4,14.3,14.3C355.8,358.7,349.4,365.1,341.5,365.1z M761.4,415c0,51.1-41.6,92.7-92.7,92.7
		l-219.9,0.2c-18.3,0-35.5,0-50.7-0.1c9.5-9.9,16.4-22.4,16.4-38.2v-94.5c0-50.1,40.8-90.9,90.9-90.9l163.4,0.1
		c51.1,0,92.7,41.5,92.7,92.6V415z"/>
	<path fill="#3D3D3D" d="M562,331.4h-70.1c-2.6,0-4.8,2.1-4.8,4.8v116.4c0,2.6,2.1,4.8,4.8,4.8h15.3c2.6,0,4.8-2.1,4.8-4.8v-41.7
		h40.1c2.6,0,4.8-2.1,4.8-4.8v-15.3c0-2.6-2.1-4.8-4.8-4.8h-40.1v-29.8H562c2.6,0,4.8-2.1,4.8-4.8v-15.3
		C566.8,333.5,564.6,331.4,562,331.4z"/>
	<path fill="#3D3D3D" d="M607,379.4h-15.3c-2.6,0-4.8,2.1-4.8,4.8v69.1c0,2.6,2.1,4.8,4.8,4.8H607c2.6,0,4.8-2.1,4.8-4.8v-69.1
		C611.7,381.6,609.6,379.4,607,379.4z"/>
	<path fill="#3D3D3D" d="M599.3,336.4c-7.9,0-14.3,6.4-14.3,14.3c0,7.9,6.4,14.3,14.3,14.3c7.9,0,14.3-6.4,14.3-14.3
		C613.6,342.9,607.2,336.4,599.3,336.4z"/>
</g>
</svg>
