<?xml version="1.0" encoding="utf-8"?>
<!-- Generator: Adobe Illustrator 17.1.0, SVG Export Plug-In . SVG Version: 6.00 Build 0)  -->
<!DOCTYPE svg PUBLIC "-//W3C//DTD SVG 1.1//EN" "http://www.w3.org/Graphics/SVG/1.1/DTD/svg11.dtd">
<svg version="1.1" id="Capa_1" xmlns="http://www.w3.org/2000/svg" xmlns:xlink="http://www.w3.org/1999/xlink" x="0px" y="0px"
	 viewBox="0 0 16 16" enable-background="new 0 0 16 16" xml:space="preserve">
<g>
	<path fill="#4D4D4D" d="M7.9,0C3.5,0.1-0.1,3.7,0,8.1c0.1,4.4,3.7,8,8.1,7.9c4.4-0.1,8-3.7,7.9-8.1C15.9,3.5,12.3-0.1,7.9,0z
		 M7.9,12.9L7.9,12.9c-0.7,0-1.2-0.5-1.2-1.2c0-0.7,0.5-1.1,1.2-1.1l0,0c0.7,0,1.2,0.5,1.2,1.2C9,12.4,8.5,12.9,7.9,12.9z M10.7,7.2
		c-0.2,0.2-0.5,0.5-1,0.9L9.3,8.4C9,8.6,8.9,8.8,8.8,9c0,0.2-0.1,0.2-0.1,0.5l0,0.1H6.9l0-0.2c0-0.6,0-1,0.3-1.3
		C7.6,7.6,8.5,7,8.6,6.9c0.1-0.1,0.2-0.2,0.3-0.3c0.2-0.3,0.3-0.5,0.3-0.7c0-0.3-0.1-0.6-0.3-0.8C8.8,4.9,8.4,4.8,8,4.8
		c-0.4,0-0.7,0.1-0.9,0.4C6.9,5.5,6.8,5.8,6.8,6.1v0.1H4.9l0-0.1c0-1.2,0.5-2,1.2-2.5c0.5-0.3,1.1-0.5,1.8-0.5
		c0.9,0,1.7,0.2,2.3,0.7c0.6,0.5,0.9,1.1,0.9,2C11.2,6.3,11,6.8,10.7,7.2z"/>
</g>
</svg>
