<?xml version="1.0" encoding="utf-8"?>
<!-- Generator: Adobe Illustrator 17.1.0, SVG Export Plug-In . SVG Version: 6.00 Build 0)  -->
<!DOCTYPE svg PUBLIC "-//W3C//DTD SVG 1.1//EN" "http://www.w3.org/Graphics/SVG/1.1/DTD/svg11.dtd">
<svg version="1.1" id="Capa_1" xmlns="http://www.w3.org/2000/svg" xmlns:xlink="http://www.w3.org/1999/xlink" x="0px" y="0px"
	 viewBox="0 0 792 792" enable-background="new 0 0 792 792" xml:space="preserve">
<g>
	<g id="Layer_5_41_">
		<g>
			<circle fill="#3D3D3D" cx="393.8" cy="268" r="27.4"/>
			<path fill="#3D3D3D" d="M605,626.7c-13.2-7.1-11.1-19.8-11.1-27.8V487.2c38.5-7.9,123.3-8.6,123.3-84.7
				c0-37.6-30.7-51.4-68.1-47.6c-29.9,3-43.9,23-94.5,3.9c-6.4-2.4-24.3-18.2-14.1-30.7c26.2-31.9,40.9-73.5,40.9-118.3
				c0-7.3-0.1-22,6.5-24.7c33.7-14.1,56.5-48.9,56.5-88.4c0-53.4-42.5-96.7-95-96.7C521,0,495.5,12.7,478,32.9
				c-1.5,1.8-4.2,5.4-10.9,2.6C443.5,24.3,423.7,21,396,21c-29.8,0-51.4,4-76.4,16.7c-7.9,2.4-13.2-5.7-17.1-9.6
				C285.3,10.8,261.7,0,235.6,0c-52.5,0-95,43.3-95,96.7c0,41,25.1,76,60.4,90.1c3.4,1.4,8.7,5.5,9.5,23
				c2.1,44.4,15.1,85.4,40.4,117.6c9.4,12,0.3,27.4-13.8,31.8c-51.5,15.9-64.4-1.2-94.2-4.3c-37.4-3.9-68.1,10-68.1,47.6
				c0,74.1,84.8,76.7,123.3,84.5v111.9c0,8.2,1.1,19.7-16,30.3c-47.8,19.7-116.4,21.2-116.4,88.1c0,40.7,33.8,81.6,73.7,73.7
				c50-9.8,76.3-26.4,152.2-60.8c16.4-7.5,27.9-3.7,35.1-2.7c21.5,3,44.9,4.2,69.2,4.2c27.2,0,53.1-1.5,76.7-5.3
				c6-1,19.9-1.5,32.6,3.7c74.1,34.5,97.9,51.1,147.2,61c39.9,8,73.7-33,73.7-73.7C726.2,650.4,652.7,646.6,605,626.7z M485.7,295.3
				c0,39.9-41.2,72.2-92,72.2c-50.8,0-92-32.3-92-72.2c0-39.9,41.2-72.2,92-72.2C444.6,223.2,485.7,255.5,485.7,295.3z M261.4,176.3
				c0-18.1,14.7-32.8,32.8-32.8c18.1,0,32.8,14.7,32.8,32.8s-14.7,32.8-32.8,32.8C276.1,209.1,261.4,194.4,261.4,176.3z
				 M507.1,582.5c0,61.4-49.8,88.9-111.1,88.9c-61.4,0-111.1-27.6-111.1-88.9v-52.2c0-61.4,49.7-111.1,111.1-111.1
				c61.4,0,111.1,49.7,111.1,111.1V582.5z M481.7,209.1c-18.1,0-32.8-14.7-32.8-32.8s14.7-32.8,32.8-32.8s32.8,14.7,32.8,32.8
				S499.8,209.1,481.7,209.1z"/>
		</g>
	</g>
</g>
</svg>
