<?xml version="1.0" encoding="utf-8"?>
<!-- Generator: Adobe Illustrator 17.1.0, SVG Export Plug-In . SVG Version: 6.00 Build 0)  -->
<!DOCTYPE svg PUBLIC "-//W3C//DTD SVG 1.1//EN" "http://www.w3.org/Graphics/SVG/1.1/DTD/svg11.dtd">
<svg version="1.1" id="Capa_1" xmlns="http://www.w3.org/2000/svg" xmlns:xlink="http://www.w3.org/1999/xlink" x="0px" y="0px"
	 viewBox="0 0 16 16" enable-background="new 0 0 16 16" xml:space="preserve">
<path fill="#4D4D4D" d="M15.7,15.4c0,0.3-0.3,0.6-0.6,0.6h-4.8H6.1H1c-0.3,0-0.6-0.3-0.6-0.6c0-0.3,0.3-0.6,0.6-0.6h4.6V13H4.3
	c-1.3,0-2.4-1.1-2.4-2.4v-3c0-0.8,0.7-1.5,1.5-1.5l0,0c0.8,0,1.5,0.7,1.5,1.5v2.3c0,0.1,0,0.1,0.1,0.1h0.5V2.7C5.5,1.2,6.7,0,8.2,0
	s2.7,1.2,2.7,2.7v3.1h0.6c0.1,0,0.2-0.1,0.2-0.2V3.8c0-0.7,0.6-1.4,1.3-1.4c0.8-0.1,1.5,0.6,1.5,1.4v2.6c0,1.2-1,2.1-2.1,2.1h-1.4
	v6.2H15C15.4,14.8,15.7,15,15.7,15.4z"/>
</svg>
