<?xml version="1.0" encoding="utf-8"?>
<!-- Generator: Adobe Illustrator 19.2.1, SVG Export Plug-In . SVG Version: 6.00 Build 0)  -->
<svg version="1.1" id="Capa_1" xmlns="http://www.w3.org/2000/svg" xmlns:xlink="http://www.w3.org/1999/xlink" x="0px" y="0px"
	 viewBox="0 0 792 792" style="enable-background:new 0 0 792 792;" xml:space="preserve">
<style type="text/css">
	.st0{fill:#3D3D3D;}
</style>
<g>
	<g>
		<path class="st0" d="M791.6,624.9c1.7,12.9-2.2,24-11.7,33.5L668.4,769.1c-5,5.6-11.6,10.3-19.7,14.3c-8.1,3.9-16.1,6.4-23.9,7.5
			c-0.6,0-2.2,0.1-5,0.4c-2.8,0.3-6.4,0.4-10.9,0.4c-10.6,0-27.8-1.8-51.6-5.5c-23.8-3.6-52.8-12.6-87.2-26.8
			c-34.4-14.3-73.4-35.6-117-64.1s-90-67.6-139.2-117.4c-39.1-38.6-71.5-75.5-97.3-110.7c-25.7-35.2-46.4-67.8-62-97.7
			c-15.7-29.9-27.4-57-35.2-81.3S6.3,243,3.5,225.4s-3.9-31.4-3.4-41.5S1,168.2,1,167.1c1.1-7.8,3.6-15.8,7.5-23.9
			c3.9-8.1,8.7-14.7,14.3-19.7L134.3,12c7.8-7.8,16.8-11.7,26.8-11.7c7.3,0,13.7,2.1,19.3,6.3s10.3,9.4,14.3,15.5l89.7,170.2
			c5,8.9,6.4,18.7,4.2,29.3c-2.2,10.6-7,19.6-14.3,26.8l-41.1,41.1c-1.1,1.1-2.1,2.9-2.9,5.4c-0.8,2.5-1.3,4.6-1.3,6.3
			c2.2,11.7,7.3,25.2,15.1,40.2c6.7,13.4,17,29.8,31,49c14,19.3,33.8,41.5,59.5,66.7c25.2,25.7,47.5,45.7,67.1,60
			c19.6,14.2,35.9,24.7,49,31.4s23.2,10.8,30.2,12.2l10.5,2.1c1.1,0,2.9-0.4,5.5-1.3c2.5-0.8,4.3-1.8,5.5-2.9l47.8-48.6
			c10.1-8.9,21.8-13.4,35.2-13.4c9.5,0,17,1.7,22.6,5h0.8l161.8,95.6C782.4,604.5,789.4,613.7,791.6,624.9z"/>
	</g>
</g>
</svg>
