<?xml version="1.0" encoding="utf-8"?>
<!-- Generator: Adobe Illustrator 17.1.0, SVG Export Plug-In . SVG Version: 6.00 Build 0)  -->
<!DOCTYPE svg PUBLIC "-//W3C//DTD SVG 1.1//EN" "http://www.w3.org/Graphics/SVG/1.1/DTD/svg11.dtd">
<svg version="1.1" id="Capa_1" xmlns="http://www.w3.org/2000/svg" xmlns:xlink="http://www.w3.org/1999/xlink" x="0px" y="0px"
	 viewBox="0 0 792 792" enable-background="new 0 0 792 792" xml:space="preserve">
<g>
	<path fill="#3D3D3D" d="M396-3C177.3-3,0,174.3,0,393s177.3,396,396,396s396-177.3,396-396S614.7-3,396-3z M396,727.1
		C211.5,727.1,61.9,577.5,61.9,393S211.5,58.9,396,58.9S730.1,208.5,730.1,393S580.5,727.1,396,727.1z"/>
	<g>
		<path fill="#3D3D3D" d="M282.8,313.8c4.2-37.3,15-66.4,32.3-87.4c17.5-20.9,44.9-31.4,82.8-31.4c32.8,0,58.6,9.3,77.8,27.7
			s28.6,43,28.6,73.5c0,21.8-4,39.3-12.1,52.3c-8,13-20.9,23-38.4,30.3c8.4,2.8,16.4,6.7,24.3,11.6c8,5.1,15,11.4,21.2,19.5
			c6.3,8,11.3,17.3,15,28.3c3.6,10.8,5.4,23.8,5.4,38.8c0,18.9-3.2,35.1-9.6,49.2c-6.7,14.2-15.5,26.1-26.5,35.6
			c-11.1,9.6-24.1,16.9-38.7,22c-14.7,5-30.5,7.4-47,7.4c-34,0-62.2-10.8-84.3-32.5c-22.1-21.7-36-53.4-41.5-95.9h50.4
			c4.9,30.9,13.5,52.6,25.5,65.3c12.1,12.4,28.6,18.7,49.8,18.7c9.6,0,18.7-1.5,27.4-4.6s16.2-7.7,22.9-13.9s11.9-13.5,16.1-22.1
			c3.9-8.8,5.7-18.4,5.7-28.9c0-20.9-6.3-38.7-19.3-53.2c-12.8-14.5-30.3-21.8-52.7-21.8h-28.6v-44.7H398c10.4,0,19.2-1.7,26.5-5.1
			c7.3-3.4,13.1-7.9,17.8-13.3s7.7-11.6,9.6-18.4c2-7,2.8-13.8,2.8-20.6c0-19.2-5.3-34.2-15.9-45.2c-10.5-11-24.6-16.4-42.1-16.4
			c-10.8,0-19.8,2-27.4,6.2c-7.4,4-13.8,9.6-18.7,16.2c-4.9,7-8.8,14.9-11.8,24c-2.9,9.1-4.9,18.7-6.2,28.6L282.8,313.8L282.8,313.8
			z"/>
	</g>
</g>
</svg>
