<?xml version="1.0" encoding="utf-8"?>
<!-- Generator: Adobe Illustrator 17.1.0, SVG Export Plug-In . SVG Version: 6.00 Build 0)  -->
<!DOCTYPE svg PUBLIC "-//W3C//DTD SVG 1.1//EN" "http://www.w3.org/Graphics/SVG/1.1/DTD/svg11.dtd">
<svg version="1.1" id="Capa_1" xmlns="http://www.w3.org/2000/svg" xmlns:xlink="http://www.w3.org/1999/xlink" x="0px" y="0px"
	 viewBox="0 0 792 792" enable-background="new 0 0 792 792" xml:space="preserve">
<g>
	<path fill="#3D3D3D" d="M396,0C177.3,0,0,177.3,0,396s177.3,396,396,396s396-177.3,396-396S614.7,0,396,0z M396,730.1
		C211.5,730.1,61.9,580.5,61.9,396S211.5,61.9,396,61.9S730.1,211.5,730.1,396S580.5,730.1,396,730.1z"/>
	<g>
		<path fill="#3D3D3D" d="M272.3,324.5c3.9-37.7,17-68.2,39.3-91.6c22.1-23.2,52.6-34.8,91.1-34.8c18.9,0,35.9,3.2,50.4,10.1
			c14.5,6.7,26.9,15.6,36.7,27.1c9.7,11.3,17.3,24,22.4,38.4c5.1,14.4,7.6,29.1,7.6,44.4c0,13.3-1.5,25.4-4.8,36
			c-3.2,10.7-7.7,20.1-13.5,28.3c-5.9,8.4-12.4,16.1-20.3,23.2c-7.6,7.3-15.9,14.1-25.1,20.4c-16.7,13-34.2,25.5-52.1,37.4
			c-17.9,12.1-35.1,25.5-51.7,40.7c-6,5.7-11,11.4-14.9,17.8c-3.9,6.2-7.1,13.9-9.7,23.2h181.6V594H276.1v-37.4
			c0-15.5,4.9-30.9,14.9-45.8c9.9-15,22.3-29.7,37.3-43.6c14.9-13.9,31.2-27.5,49.2-40.8c17.9-13.1,34.8-26,50.9-38.4
			c12.1-9.3,21.7-19.2,28.9-29.7c7-10.7,10.7-24.1,10.7-40.7c0-23.5-5.9-41.8-18.1-54.9c-12.1-13.1-27.7-19.6-47.2-19.6
			c-23.8,0-42.5,7.3-56.5,21.8c-13.9,14.5-20.7,34.5-20.7,59.7L272.3,324.5L272.3,324.5z"/>
	</g>
</g>
</svg>
