<?xml version="1.0" encoding="utf-8"?>
<!-- Generator: Adobe Illustrator 17.1.0, SVG Export Plug-In . SVG Version: 6.00 Build 0)  -->
<!DOCTYPE svg PUBLIC "-//W3C//DTD SVG 1.1//EN" "http://www.w3.org/Graphics/SVG/1.1/DTD/svg11.dtd">
<svg version="1.1" id="Capa_1" xmlns="http://www.w3.org/2000/svg" xmlns:xlink="http://www.w3.org/1999/xlink" x="0px" y="0px"
	 viewBox="0 0 792 792" enable-background="new 0 0 792 792" xml:space="preserve">
<g>
	<g>
		<path fill="#4D4D4D" d="M460.9,435.5c-10.1,0-18.4,3.4-24.3,9.9c-5.2,5.8-8.1,13.7-8.1,22c0,15.5,10.1,32.4,32.6,32.4
			c10.1,0,18.4-3.4,24.3-9.9c5.2-5.8,8.1-13.7,8.1-22C493.5,452.3,483.1,435.5,460.9,435.5z"/>
		<path fill="#4D4D4D" d="M332.5,357.2c10.1,0,18.4-3.4,24.3-9.9c5.2-5.8,8.1-13.5,8.1-22c0-15.5-10.1-32.4-32.6-32.4
			c-22.9,0-33,16-33,31.9C299,340.6,309.6,357.2,332.5,357.2z"/>
		<path fill="#4D4D4D" d="M396.1,141c-140.5,0-254.9,114.4-254.9,254.9s114.4,254.9,254.9,254.9S651,536.4,651,395.9
			S536.6,141,396.1,141z M285.7,283.9c11.5-12.4,27.4-18.9,46.5-18.9c40.9,0,62.3,30.3,62.3,60.2c0,15.7-5.6,30.3-15.7,41.4
			c-11.5,12.4-27.7,18.9-46.8,18.9c-40.7,0-62-30.3-62-60.2C270,309.6,275.6,294.9,285.7,283.9z M323.9,499.7
			c-2.5,2.7-7.6,4.9-11.2,4.9h-26.3c-3.8,0-4.7-2.2-2.2-4.9l185.5-206.4c2.5-2.7,7.6-5.2,11.2-5.2l26.1-0.4c3.6,0,4.7,2.2,2.2,4.9
			L323.9,499.7z M506.7,508.5c-11.2,12.1-27,18.7-45.9,18.7c-40,0-60.9-29.7-60.9-59.1c0-15.5,5.4-29.9,15.3-40.7
			c11.2-12.1,27-18.7,45.6-18.7c40.2,0,61.1,29.7,61.1,59.1C522,483.3,516.6,497.7,506.7,508.5z"/>
		<path fill="#4D4D4D" d="M725.7,503.1c11.7-36.2,66.5-67,66.5-107s-54.6-71-66.5-107c-12.1-37.5,13.5-94.6-9.2-125.7
			c-22.9-31.5-85.2-24.5-116.9-47.4c-31-22.9-43.6-84.5-81.2-96.7c-36.2-11.7-82.3,30.3-122.3,30.3s-86.3-42-122.3-30.3
			c-37.5,12.1-50.1,73.7-81.4,96.4c-31.5,22.9-94,16-116.9,47.4c-22.7,31.2,2.9,88.3-9.2,125.7C54.6,325.1,0,356.1,0,396.1
			s54.6,71,66.5,107c12.1,37.5-13.5,94.6,9.2,125.7c22.9,31.5,85.2,24.5,116.9,47.4c31.2,22.7,43.8,84.3,81.2,96.4
			c36.2,11.7,82.3-30.3,122.3-30.3s86.3,42,122.3,30.3c37.5-12.1,50.1-73.7,81.2-96.4c31.5-22.9,94-16,116.9-47.4
			C739.2,597.8,713.5,540.7,725.7,503.1z M396.1,689.3C234.5,689.3,103,557.7,103,396.1S234.5,103,396.1,103
			s293.2,131.5,293.2,293.2S557.7,689.3,396.1,689.3z"/>
	</g>
</g>
</svg>
