<?xml version="1.0" encoding="utf-8"?>
<!-- Generator: Adobe Illustrator 17.1.0, SVG Export Plug-In . SVG Version: 6.00 Build 0)  -->
<!DOCTYPE svg PUBLIC "-//W3C//DTD SVG 1.1//EN" "http://www.w3.org/Graphics/SVG/1.1/DTD/svg11.dtd">
<svg version="1.1" id="Capa_1" xmlns="http://www.w3.org/2000/svg" xmlns:xlink="http://www.w3.org/1999/xlink" x="0px" y="0px"
	 viewBox="0 0 16 16" enable-background="new 0 0 16 16" xml:space="preserve">
<g>
	<circle fill="#4D4D4D" cx="2.5" cy="2.3" r="0.4"/>
	<circle fill="#4D4D4D" cx="3.8" cy="2.3" r="0.4"/>
	<circle fill="#4D4D4D" cx="10.9" cy="2.3" r="0.4"/>
	<circle fill="#4D4D4D" cx="12.2" cy="2.3" r="0.4"/>
	<circle fill="#4D4D4D" cx="13.5" cy="2.3" r="0.4"/>
	<path fill="#4D4D4D" d="M8,13c1.9,0,3.5-1.6,3.5-3.5S9.9,6.1,8,6.1S4.5,7.6,4.5,9.6C4.5,11.5,6.1,13,8,13z M8,6.8
		c1.5,0,2.8,1.2,2.8,2.8c0,0,0,0,0,0.1c-0.1,0.1-0.3,0.2-0.5,0.2c-0.3,0-0.4-0.1-0.6-0.3C9.5,9.4,9.4,9.3,9.1,9.3S8.7,9.4,8.6,9.6
		C8.5,9.7,8.3,9.8,8,9.8c-0.3,0-0.4-0.1-0.6-0.3C7.3,9.4,7.2,9.3,6.9,9.3c-0.3,0-0.4,0.1-0.5,0.2C6.2,9.7,6.1,9.8,5.8,9.8
		c-0.3,0-0.4-0.1-0.5-0.2c0,0,0,0,0,0C5.2,8,6.5,6.8,8,6.8z"/>
	<path fill="#4D4D4D" d="M1.3,16h13.5V3.1H1.3V16z M8,5.3c2.4,0,4.3,1.9,4.3,4.3s-1.9,4.3-4.3,4.3c-2.4,0-4.3-1.9-4.3-4.3
		C3.7,7.2,5.6,5.3,8,5.3z"/>
	<rect x="1.3" y="0" fill="#4D4D4D" width="13.5" height="1.4"/>
</g>
</svg>
