<?xml version="1.0" encoding="utf-8"?>
<!-- Generator: Adobe Illustrator 17.1.0, SVG Export Plug-In . SVG Version: 6.00 Build 0)  -->
<!DOCTYPE svg PUBLIC "-//W3C//DTD SVG 1.1//EN" "http://www.w3.org/Graphics/SVG/1.1/DTD/svg11.dtd">
<svg version="1.1" id="Capa_1" xmlns="http://www.w3.org/2000/svg" xmlns:xlink="http://www.w3.org/1999/xlink" x="0px" y="0px"
	 viewBox="0 0 792 792" enable-background="new 0 0 792 792" xml:space="preserve">
<g>
	<circle fill="#3D3D3D" cx="123.8" cy="113.8" r="19.8"/>
	<circle fill="#3D3D3D" cx="188.1" cy="113.8" r="19.8"/>
	<circle fill="#3D3D3D" cx="539.5" cy="113.8" r="19.8"/>
	<circle fill="#3D3D3D" cx="603.9" cy="113.8" r="19.8"/>
	<circle fill="#3D3D3D" cx="668.3" cy="113.8" r="19.8"/>
	<path fill="#3D3D3D" d="M396,643.5c94,0,173.3-79.2,173.3-173.3S490,301.9,396,301.9s-173.3,74.3-173.3,173.3
		C222.8,569.3,301.9,643.5,396,643.5z M396,336.6c74.3,0,138.6,59.4,138.6,138.6c0,0,0,0,0,5c-5,5-14.9,9.9-24.8,9.9
		c-14.9,0-19.8-5-29.7-14.9c-9.9-9.9-14.9-14.9-29.7-14.9c-14.8,0-19.8,4.9-24.8,14.9c-5,4.9-14.9,9.9-29.7,9.9s-19.8-5-29.7-14.9
		c-5-5-9.9-9.9-24.8-9.9c-14.9,0-19.8,5-24.8,9.9c-9.9,9.9-14.9,14.9-29.7,14.9c-14.9,0-19.8-5-24.8-9.9l0,0
		C257.4,396,321.8,336.6,396,336.6z"/>
	<path fill="#3D3D3D" d="M64.3,792h668.3V153.4H64.3V792z M396,262.4c118.8,0,212.9,94.1,212.9,212.9s-94,212.9-212.9,212.9
		s-212.9-94-212.9-212.9C183.2,356.4,277.2,262.4,396,262.4z"/>
	<rect x="64.4" y="0" fill="#3D3D3D" width="668.3" height="69.3"/>
</g>
</svg>
