<?xml version="1.0" encoding="utf-8"?>
<!-- Generator: Adobe Illustrator 19.2.1, SVG Export Plug-In . SVG Version: 6.00 Build 0)  -->
<svg version="1.1" id="Layer_1" xmlns="http://www.w3.org/2000/svg" xmlns:xlink="http://www.w3.org/1999/xlink" x="0px" y="0px"
	 viewBox="0 0 654 652" style="enable-background:new 0 0 654 652;" xml:space="preserve">
<style type="text/css">
	.st0{fill:#3D3D3D;}
</style>
<g transform="translate(0.000000,652.000000) scale(0.100000,-0.100000)">
	<path class="st0" d="M3012,5125c-439-67-805-253-1102-561c-186-193-310-386-405-633c-91-235-130-470-122-736c9-285,65-513,193-773
		c388-795,1271-1206,2139-998c603,145,1110,599,1322,1186c177,488,145,1027-88,1492c-145,290-358,531-636,721
		c-106,73-320,177-453,221c-197,66-330,87-555,91C3166,5138,3077,5135,3012,5125z M3495,4925c186-28,323-70,491-150
		c441-209,770-599,903-1070c48-171,55-232,56-455c0-239-9-304-70-506c-181-596-707-1059-1323-1165c-491-84-970,40-1357,349
		c-105,84-141,119-219,212c-122,145-231,320-286,460c-227,572-146,1185,219,1675c68,91,256,274,351,342c231,165,493,272,755,308
		C3143,4943,3376,4943,3495,4925z"/>
	<path class="st0" d="M3100,4593c-324-51-578-175-794-389c-170-167-304-419-362-679c-21-97-30-342-15-446c36-252,122-455,277-659
		c44-57,191-210,203-210c3,0,17-10,31-23c40-36,102-74,200-124c30-15,57-31,58-35c2-5,9-8,16-8c11,0,63-19,141-50c11-5,31-11,45-13
		c14-3,57-13,95-22c158-36,420-30,595,14c409,103,746,388,911,771c84,194,116,378,106,604c-10,208-46,345-144,543
		c-106,215-256,381-474,526c-50,33-209,113-234,118c-5,1-21,6-35,11c-57,23-161,49-247,63C3389,4599,3165,4604,3100,4593z
		 M3403,4450c205-30,374-94,537-203c91-61,253-220,305-302c22-33,42-62,45-65c20-17,93-181,118-265c48-158,56-210,56-365
		c0-206-31-343-120-528c-43-89-123-212-168-257c-11-11-32-34-46-51c-23-26-74-73-127-115c-214-172-517-270-793-256
		c-183,10-317,45-485,128c-276,135-490,372-599,661c-52,140-69,242-70,413c0,171,11,242,59,390c23,69,99,231,115,245
		c3,3,23,32,45,65c85,131,278,299,440,381C2928,4435,3186,4481,3403,4450z"/>
	<path class="st0" d="M2485,3815c-50-18-75-48-75-90c0-29,4-34,29-40c53-11,54-22,26-150c-28-122-92-334-128-420
		c-30-72-55-105-93-121c-47-20-70-57-55-90c21-47,70-59,241-59c163,1,219,10,264,46c38,30,36,78-5,102c-30,17-31,19-24,63
		c10,67,45,197,57,211c14,17,60,16,84-1c17-13,19-27,19-164c0-136,2-153,21-178c45-61,66-69,182-69c92,0,113,3,149,23
		c72,38,84,88,27,115l-35,17l3,140l3,139l-38,38c-43,45-41,51,34,101c77,51,119,129,119,219c0,78-34,131-105,164
		c-36,17-69,19-350,18C2593,3829,2516,3826,2485,3815z M2915,3673c32-31,0-165-51-219c-38-41-94-49-94-13c0,22,44,190,60,227
		C2842,3695,2890,3698,2915,3673z"/>
	<path class="st0" d="M3627,3780c-14-12-48-54-76-95c-110-165-123-305-27-305c28,0,69,36,107,91c15,21,25,24,117,27
		c125,5,152,0,152-31c0-24-16-48-292-419c-107-144-168-235-168-250c0-53,115-121,207-122c28-1,53,1,56,4c6,6,486,775,574,919
		c66,108,77,152,46,170c-11,6-117,8-283,4c-231-5-270-4-304,11C3685,3805,3658,3804,3627,3780z"/>
</g>
</svg>
